<?xml version="1.0" encoding="UTF-8"?>
<svg id="Layer_1" xmlns="http://www.w3.org/2000/svg" version="1.1" viewBox="0 0 431 378">
  <!-- Generator: Adobe Illustrator 29.1.0, SVG Export Plug-In . SVG Version: 2.1.0 Build 142)  -->
  <defs>
    <style>
      .st0 {
        fill: #fff;
      }
    </style>
  </defs>
  <path class="st0" d="M185.1,25.5c-8.3,1.8-15.5,3.6-16.1,3.9-.6.4-3.3,4.4-5.9,9-8.8,15.4-30.9,47.4-40.4,58.6-2.4,2.8-7.9,3.9-20.1,4-4.4,0-8.2.6-9.2,1.3-3.8,3-11.6,30.9-14.2,51.1-.8,6.5-1.5,19.2-1.5,28.2,0,15.6,0,16.5-2.2,17.9-2.4,1.7-3.7,1.3-10.8-4.1-8.2-6.2-9-8.6-9-25.5v-14.8l-2.5-.6c-3-.7-25.8,3.4-28.2,5.1-1.4,1.1-1.6,3.7-1.6,20.9s.3,20,1.4,21c.8.8,6.1,2.5,11.7,4,19.5,4.8,33.2,13.5,41.9,26.4,2.1,3.1,6.3,10.6,9.3,16.7l5.5,11,9.9.8c6.9.6,10.6.6,12.3-.2,2.9-1.3,2.9-1.1-.5-22.9-4.4-27.9-5.2-71.1-1.7-86.2,3.7-15.4,12.5-32.5,17.8-34.3,4.6-1.5,5,0,3.3,11.4-5,33.1-5,72,0,105.3,4.7,31.9,15,63.7,28.9,89.8,5.3,10,3.2,8.9,24.8,13.3,13.4,2.8,17.2,2.7,18.2-.4.3-1.1-1.2-7.7-3.4-14.8-12.5-41-19.1-88.8-19.1-139.9s6.2-98.7,21-147.6c2.3-7.5,2.3-7.8.5-9.8-2.2-2.5-1.8-2.5-20.1,1.4h0Z"/>
  <path class="st0" d="M222.1,24.8c-2.3,2.2-1.7,6.9,2.8,22,2,6.8,5,18.9,6.7,27,1.9,9.4,3.7,15.4,4.8,16.5,1.3,1.3,6,2,21.9,3.3,21.3,1.7,23.5,1.5,24.8-2.5.9-2.9-8.5-30-14.9-42.9-4.9-9.8-10.2-19.1-10.9-19.1s-6.5-1.4-14-3c-15.8-3.4-18.9-3.6-21.2-1.3h0Z"/>
  <path class="st0" d="M289.9,97.8c-3.4,1.3-3.3,4.1.5,28.9l3.7,24.7-2.9,2.4c-2.1,1.9-3.6,2.3-5.9,1.9-1.7-.3-11.3-1.3-21.3-2.3-15.1-1.4-18.4-1.5-19.7-.4-1.4,1.2-1.6,4.7-1.6,27.5s.4,26.6.8,27.2c1.4,2.1,4.2,2.2,21.3.3,23.9-2.5,25.5-2.5,27.5.6,1.6,2.4,1.5,3.9-2,26.7-3.4,22.1-3.5,24.3-2.1,26.4,1.1,1.7,2.5,2.4,4.8,2.4,3.3,0,38.4-4.6,42.4-5.5,2.6-.6,5-4.9,9.3-16.6,3.1-8.3,7-25.5,7-30.8s-1.6-6.1-28.6-6.1h-24.3l-1.9-2.5c-1.8-2.3-2-4.1-2-22.1,0-26.7-2.7-24.4,29.1-24.4s24.5-.1,26.2-2c1.4-1.6,1.6-2.9,1.1-7.2-1.9-15-9.2-37.5-13.6-42.1-1.4-1.5-6.2-2.5-23.1-4.8-22.4-3-22.6-3-24.7-2.2Z"/>
  <path class="st0" d="M354.4,158.9c-1.5,1.6-1.7,4.6-1.7,21.8s.4,20.4.8,21.1c1.6,2.5,6.3,2.9,26,1.8,18.3-.9,20.5-1.2,21.8-2.9,1.1-1.5,1.4-6,1.4-19.7s-.2-18-1.7-19.8c-1.6-1.9-3.3-2.2-18.8-3.1-24.1-1.4-25.9-1.3-27.8.8h0Z"/>
  <path class="st0" d="M257.5,268.1c-11.5.9-20.2,2.1-21.1,2.8-.8.7-2.2,5.2-3.1,10-2.1,10.3-7.7,33-10.6,42.2-2.7,8.9-2.6,12.5.4,14.6,2.3,1.4,3.5,1.3,18.3-1.8l15.8-3.3,3.7-5.5c5.1-7.6,13.9-27.3,18.9-42.4,3.9-11.8,4-12.8,2.6-15-.9-1.3-2.4-2.5-3.4-2.8-1-.2-10.6.3-21.5,1.2h0Z"/>
</svg>