<?xml version="1.0" encoding="UTF-8"?>
<svg id="Layer_1" xmlns="http://www.w3.org/2000/svg" version="1.1" viewBox="0 0 686 205">
  <!-- Generator: Adobe Illustrator 29.1.0, SVG Export Plug-In . SVG Version: 2.1.0 Build 142)  -->
  <defs>
    <style>
      .st0 {
        fill: #fff;
      }
    </style>
  </defs>
  <path class="st0" d="M135.4,25.35c-5.1,2.2-8.5,7.1-8.5,12.2,0,9,5.5,14.4,14.6,14.4s16.1-7.2,14.9-15.3c-.7-5.1-2.7-7.9-7.4-10.5-4.4-2.5-9.1-2.8-13.6-.8Z"/>
  <path class="st0" d="M20.9,95.45v66.5h94v-26l-32.7-.2-32.8-.3-.3-53.3-.2-53.2h-28v66.5Z"/>
  <path class="st0" d="M519.9,95.45v66.5h48v-21.9l-10.7-.3-10.8-.3-.3-55.3-.2-55.2h-26v66.5Z"/>
  <path class="st0" d="M432.7,63.05c-16.5,2.4-30.5,16.1-35.2,34.4-2.1,7.8-2.1,25.2-.1,33,3.6,13.7,12.4,24.9,24.2,30.7,6.5,3.2,7.2,3.3,18.3,3.3s11.9-.2,16.9-2.8c2.9-1.6,7.6-4.9,10.2-7.4l4.9-4.6v12.3h27v-97h-27v6.7l-.1,6.8-2.3-2.7c-9.1-10.3-22.3-14.8-36.8-12.7ZM459.2,88.25c9,5.3,12.2,12.2,12.2,26.2,0,9.3-.2,10.4-3.1,15.4-10,17.6-34.5,16.7-42.6-1.7-4.6-10.2-3.1-25.3,3.2-34.1,6.6-9.1,20.2-11.7,30.3-5.8Z"/>
  <path class="st0" d="M611.3,63.05c-12.9,1.5-23.5,7.6-28.5,16.3-2.5,4.4-2.9,6.1-2.9,12.6,0,9.2,2,14,8,19.4,5.8,5.3,12.1,7.8,28.3,11.5,7.6,1.7,15.4,3.8,17.3,4.7,14.4,6.8,1.1,19-16.7,15.3-4.5-.9-6.2-2-10.7-6.5l-5.2-5.4h-13c-10.2,0-13,.3-13,1.3,0,3.4,6.9,14.7,12.1,20,9.2,9.2,19.3,12.7,36.6,12.7,20.5,0,34.7-7.2,41.1-20.9,2.1-4.5,2.4-6.4,2-12-.8-10.1-5.8-17.9-14.6-22.5-3.9-2-14.6-5.3-21.7-6.6-21.1-4-28.6-10.1-20.2-16.4,4.1-3,16.5-2.9,22.4.2,2.3,1.2,4.7,3.1,5.3,4.2,1,1.8,2.1,2,14.6,2h13.5l-.7-2.3c-6.2-20.1-27.2-30.9-54-27.6Z"/>
  <path class="st0" d="M127.9,113.45v48.5h27v-97h-27v48.5Z"/>
  <path class="st0" d="M167.9,65.75c0,.4,5.6,22,12.5,48,6.9,25.9,12.5,47.4,12.5,47.7s11.5.4,25.6.3l25.7-.3,12.7-48,12.7-48-13.5-.3c-7.4-.1-13.6-.1-13.8,0-.1.2-3.9,15.4-8.4,33.8-4.4,18.4-8.5,35.2-9.1,37.2q-1,3.8-6.2,3.8h-5.3l-8.4-34.3c-4.5-18.8-8.7-35.7-9.2-37.5l-.9-3.2h-13.4c-7.4,0-13.5.3-13.5.8Z"/>
  <path class="st0" d="M283.1,102.15l.3,37.3,2.6,5.5c6.8,14.6,18,20.7,36.3,19.8,11.5-.5,18.4-3.6,25.1-11l4.5-5v13.2h27v-97h-27v29.2c0,28.7-.1,29.4-2.4,34.4-3.8,8.2-13,14.4-21.3,14.4-3.9,0-9.5-2.3-12.8-5.1-5.9-5.2-6.5-9.1-6.5-43.1v-29.8h-26.1l.3,37.2Z"/>
</svg>